PathFileType	4	(X/Y/Z)	OpenSim_Sub07_CSStiffKnee_Gyro.trc
DataRate	CameraRate	NumFrames	NumMarkers	Units	OrigDataRate	OrigDataStartFrame	OrigNumFrames
100	100	16	8	m	100	5893	6734
Frame#	Time	torso_imu_offset_imu	pelvis_imu_offset_imu	tibia_r_imu_offset_imu	femur_r_imu_offset_imu	tibia_l_imu_offset_imu	femur_l_imu_offset_imu	toes_r_imu_offset_imu	toes_l_imu_offset_imu
				X1	Y1	Z1	X2	Y2	Z2	X3	Y3	Z3	X4	Y4	Z4	X5	Y5	Z5	X6	Y6	Z6	X7	Y7	Z7	X8		Y8	Z8	

5893	58.92000000	0.19404176	-0.18521384	-0.17799145	-0.28634069	-0.24580026	-0.00035593	0.12696389	-0.36654129	-1.22021224	-0.08385494	0.48715308	-0.19677399	-0.02409828	-0.37937815	-0.46668965	0.16978260	-0.41060159	0.00587831	-0.39366832	-0.76752801	0.34833446	0.41350979	0.20734679	-0.48223210
5894	58.93000000	0.21610043	-0.19921205	-0.16802219	-0.29151462	-0.29297371	0.00629311	0.19107056	-0.38871446	-1.26873297	-0.08869944	0.43874206	-0.14793043	-0.02671425	-0.27838722	-0.04068527	0.31476316	-0.32239081	-0.17500035	-0.38643967	-0.80894528	0.34634409	0.53575763	-0.09384404	-0.36727783
5895	58.94000000	0.23974256	-0.21355134	-0.15664293	-0.28130170	-0.34710987	0.06027406	0.19258054	-0.41055015	-1.31670468	-0.07807978	0.37188194	-0.11073139	-0.01357326	-0.19924929	0.33034229	0.39416477	-0.20325127	-0.38168698	-0.38964715	-0.86730724	0.35295405	0.29475993	-0.30172758	-0.25363389
5896	58.95000000	0.25214937	-0.23048907	-0.14609334	-0.31509405	-0.38038375	0.03017539	0.15930715	-0.43666993	-1.37561929	-0.07327037	0.29418771	-0.09468610	-0.13475363	-0.16301208	0.62578951	0.56261464	0.02000249	-0.74542127	-0.40853750	-0.93958852	0.36953407	0.45844923	-0.85999510	-0.09829809
5897	58.96000000	0.27492500	-0.24893842	-0.13385478	-0.33414982	-0.40979550	0.07052436	0.15639870	-0.46219727	-1.43074512	-0.08967429	0.21719699	-0.09758474	-0.36668645	-0.12586701	0.82595125	0.73819021	-0.08382720	-0.85788766	-0.42858491	-1.03824549	0.40484730	-1.09791760	-2.50945192	0.19566221
5898	58.97000000	0.30083658	-0.26727180	-0.12453642	-0.33325696	-0.44497384	0.08355831	0.14927897	-0.48263541	-1.50610274	-0.13654854	0.15879278	-0.10443708	-0.73307523	-0.05728867	1.00018992	0.55455177	-0.50193181	-0.72784197	-0.45953697	-1.14542527	0.46566442	-3.66115650	-3.50781477	0.14953645
5899	58.98000000	0.32972866	-0.29234826	-0.10723186	-0.33542865	-0.45897685	0.09830385	0.05920285	-0.51508234	-1.58236823	-0.18674421	0.11280963	-0.11275889	-0.98761225	-0.10576209	1.36253350	0.58887528	-0.63864849	-0.60626012	-0.50242470	-1.28522320	0.52402455	-0.16474961	-3.23208279	-0.42523151
5900	58.99000000	0.36583850	-0.33228719	-0.09118681	-0.35338966	-0.46005732	0.10985300	-0.00782537	-0.56713463	-1.66390256	-0.21039613	0.06937414	-0.11039129	-1.14815882	-0.18405919	1.71408291	0.48947967	-0.81765805	-0.30905079	-0.54838281	-1.46166070	0.58590388	-0.35859527	-2.85010290	-0.22858388
5901	59.00000000	0.39023401	-0.36326920	-0.07529528	-0.33214706	-0.43309391	0.09257660	0.00151048	-0.59848508	-1.75015221	-0.19302051	0.03409877	-0.07366418	-1.63165129	-0.26569982	1.61350197	0.18395905	-0.80162868	-0.05977143	-0.59111072	-1.68711499	0.65428409	-3.44749400	-2.69127061	0.62491454
5902	59.01000000	0.41832790	-0.37355099	-0.06020035	-0.27067700	-0.40052952	0.05652990	-0.05197263	-0.63802751	-1.83765845	-0.16488312	0.01286191	0.02076428	-1.74187677	-0.50740175	1.25727276	-0.24934037	-0.69117790	0.15073741	-0.69086182	-1.93972797	0.73642362	-1.20139589	-3.27847676	0.88224642
5903	59.02000000	0.42721174	-0.37068909	-0.03641629	-0.20703281	-0.37946613	-0.00960525	-0.19074966	-0.70711761	-1.93979909	-0.12088018	0.00306156	0.16960586	-0.91863436	-0.60941367	1.10207088	-0.55917287	-0.56253387	0.36530325	-0.81237984	-2.27638356	0.79612464	1.36366037	-2.62924674	0.72231771
5904	59.03000000	0.41713656	-0.35240730	-0.01607513	-0.10115968	-0.35796581	-0.14018822	-0.27988096	-0.81559076	-2.01185840	-0.05980504	-0.01316520	0.36484908	-0.25808210	-0.30161665	1.28531977	-0.84232120	-0.34057993	0.41690332	-0.86084092	-2.61373824	0.79396485	-0.79373753	-0.84699939	0.63956905
5905	59.04000000	0.37596522	-0.31865361	-0.00732719	0.06206926	-0.34558323	-0.25431642	-0.24512978	-0.89037176	-2.07693319	-0.03440046	-0.03446605	0.58873887	-0.61404968	0.21294840	1.56095619	-0.84279676	-0.10254233	0.15711274	-0.89808381	-3.01546252	0.76549457	-1.89989992	-0.05999531	0.27282091
5906	59.05000000	0.30296990	-0.29056210	-0.00388995	0.17547433	-0.36429154	-0.29567351	-0.34793267	-0.90487551	-2.18805224	-0.06163371	-0.02982795	0.83441559	-1.35373534	0.54851511	1.83699857	-0.64937927	0.07683987	-0.38118750	-1.07360657	-3.46296152	0.74513163	0.24164881	-0.26393380	0.16312215
5907	59.06000000	0.23510722	-0.28530227	-0.00269989	0.14321133	-0.41492008	-0.23172264	-0.51150808	-0.97626007	-2.21274174	-0.07229894	0.03494301	1.07126970	-1.87227549	0.18465065	2.11028529	-0.91204661	0.03081717	-0.84611372	-1.17631927	-3.85545664	0.60943236	-0.64441931	-0.57893918	0.05104546
5908	59.07000000	0.18335303	-0.30111375	-0.02098545	-0.03667054	-0.45355583	-0.12228880	-0.43478992	-1.03392839	-2.32193879	-0.01830294	0.12398212	1.28768150	-1.86231782	-0.39424793	2.13689262	-1.52284454	-0.08290794	-0.77193909	-1.27207095	-4.23106786	0.40898714	0.10401517	0.00990603	0.02619032
